# xmcd
#
# Track frame offsets:
#	150
#	15452
#	27702
#	41742
#	55072
#	67300
#	78040
#	91712
#	109137
#	123567
#	137842
#	152132
#
# Disc length: 2254 seconds
#
# Revision: 1
# Processed by: cddbd v1.5.2PL0 Copyright (c) Steve Scherf et al.
# Submitted via: audiograbber 1.83.01
#
DISCID=9e08cc0c
DTITLE=Mieke - Mieke zingt Dolly Parton
DYEAR=1997
DGENRE=NL-talig
TTITLE0=Hartenbreker
TTITLE1=Voor vader
TTITLE2=De bonte lapjesmantel
TTITLE3=Als ik ga
TTITLE4=Jolien
TTITLE5=Bloem en bij
TTITLE6=Vertel het me liever niet
TTITLE7=Het licht van mijn twee ogen
TTITLE8='t Is niet goed maar ook niet slecht
TTITLE9=Liedjesman
TTITLE10=De weg die ik zoek
TTITLE11=Voor altijd samen
EXTD=
EXTT0=
EXTT1=
EXTT2=
EXTT3=
EXTT4=
EXTT5=
EXTT6=
EXTT7=
EXTT8=
EXTT9=
EXTT10=
EXTT11=
PLAYORDER=
